<svg xmlns="http://www.w3.org/2000/svg" xmlns:xlink="http://www.w3.org/1999/xlink" width="20" height="20" viewBox="0 0 20 20">
  <defs>
    <clipPath id="clip-path">
      <rect id="Rectangle_900" data-name="Rectangle 900" width="20" height="20" transform="translate(3020 -1484)" fill="#fff"/>
    </clipPath>
    <clipPath id="clip-path-2">
      <path id="Path_42154" data-name="Path 42154" d="M405,68.938h24v24H405Zm0,0" transform="translate(-405 -68.938)"/>
    </clipPath>
    <clipPath id="clip-path-3">
      <path id="Path_42153" data-name="Path 42153" d="M405,86.938v-12q0-.295.029-.588t.086-.582q.058-.289.143-.571t.2-.554q.113-.272.252-.532t.3-.505q.164-.245.351-.473t.4-.436q.209-.208.436-.4t.473-.351q.245-.164.5-.3t.532-.252q.272-.113.554-.2t.571-.143q.289-.058.582-.087t.588-.029h12q.295,0,.588.029t.582.087q.289.057.571.143t.554.2q.273.113.532.252t.5.3q.245.164.473.351t.436.4q.208.208.4.436t.351.473q.164.245.3.505t.252.532q.112.273.2.554t.143.571q.057.289.086.582t.029.588v12q0,.3-.029.588t-.086.582q-.058.289-.143.571t-.2.554q-.113.272-.252.532t-.3.505q-.164.245-.351.473t-.4.436q-.209.208-.436.4t-.473.351q-.245.164-.5.3t-.532.252q-.272.113-.554.2t-.571.143q-.289.057-.582.087t-.588.029H411q-.295,0-.588-.029t-.582-.087q-.289-.058-.571-.143t-.554-.2q-.273-.113-.532-.252t-.5-.3q-.245-.164-.473-.351t-.436-.4q-.208-.208-.4-.436t-.351-.473q-.164-.245-.3-.505t-.252-.532q-.112-.273-.2-.554t-.143-.571q-.057-.289-.086-.582T405,86.938Zm0,0" transform="translate(-405 -68.938)"/>
    </clipPath>
    <clipPath id="clip-path-4">
      <path id="Path_42157" data-name="Path 42157" d="M405,68.938h24v8.047H405Zm0,0" transform="translate(-405 -68.938)"/>
    </clipPath>
    <clipPath id="clip-path-5">
      <path id="Path_42156" data-name="Path 42156" d="M405,87.032V74.969q0-.3.029-.591t.086-.586q.058-.291.143-.574t.2-.557q.113-.274.252-.535t.3-.508q.164-.247.351-.475t.4-.439q.209-.209.436-.4t.473-.353q.245-.164.5-.3t.532-.253q.272-.113.554-.2t.571-.144q.289-.058.582-.087t.588-.029h12q.295,0,.588.029t.582.087q.289.058.571.144t.554.2q.273.113.532.253t.5.3q.245.164.473.353t.436.4q.208.209.4.439t.351.475q.164.247.3.508t.252.535q.112.274.2.557t.143.574q.057.291.086.586t.029.591V87.032q0,.3-.029.591t-.086.586q-.058.291-.143.574t-.2.557q-.113.274-.252.535t-.3.508q-.164.246-.351.475t-.4.439q-.209.209-.436.4t-.473.353q-.245.164-.5.3t-.532.253q-.272.113-.554.2t-.571.144q-.289.058-.582.087t-.588.029H411q-.295,0-.588-.029t-.582-.087q-.289-.058-.571-.144t-.554-.2q-.273-.113-.532-.253t-.5-.3q-.245-.165-.473-.353t-.436-.4q-.208-.209-.4-.439t-.351-.475q-.164-.247-.3-.508t-.252-.535q-.112-.274-.2-.557t-.143-.574q-.057-.291-.086-.586T405,87.032Zm0,0" transform="translate(-405 -68.938)"/>
    </clipPath>
    <clipPath id="clip-path-6">
      <path id="Path_42160" data-name="Path 42160" d="M405,284h24v8.112H405Zm0,0" transform="translate(-405 -284)"/>
    </clipPath>
    <clipPath id="clip-path-8">
      <path id="Path_42163" data-name="Path 42163" d="M405,68.938h12.063v24H405Zm0,0" transform="translate(-405 -68.938)"/>
    </clipPath>
    <clipPath id="clip-path-9">
      <path id="Path_42162" data-name="Path 42162" d="M405,86.938v-12q0-.295.029-.588t.087-.582q.058-.289.144-.571t.2-.554q.113-.272.253-.532t.3-.505q.164-.245.353-.473t.4-.436q.21-.208.439-.4t.476-.351q.246-.164.508-.3t.535-.252q.274-.113.557-.2t.574-.143q.291-.058.586-.087t.591-.029h12.063q.3,0,.591.029t.586.087q.291.057.574.143t.557.2q.274.113.535.252t.508.3q.247.164.476.351t.439.4q.209.208.4.436t.353.473q.165.245.3.505t.253.532q.113.273.2.554t.144.571q.058.289.087.582t.029.588v12q0,.3-.029.588t-.087.582q-.058.289-.144.571t-.2.554q-.113.272-.253.532t-.3.505q-.164.245-.353.473t-.4.436q-.21.208-.439.4t-.476.351q-.246.164-.508.3t-.535.252q-.274.113-.557.2t-.574.143q-.291.057-.586.087t-.591.029H411.031q-.3,0-.591-.029t-.586-.087q-.291-.058-.574-.143t-.557-.2q-.274-.113-.535-.252t-.508-.3q-.247-.164-.476-.351t-.439-.4q-.209-.208-.4-.436t-.353-.473q-.165-.245-.3-.505t-.253-.532q-.113-.273-.2-.554t-.144-.571q-.058-.289-.087-.582T405,86.938Zm0,0" transform="translate(-405 -68.938)"/>
    </clipPath>
    <clipPath id="clip-path-10">
      <path id="Path_42166" data-name="Path 42166" d="M440,207h3.425v3.351H440Zm0,0" transform="translate(-440 -207)"/>
    </clipPath>
    <clipPath id="clip-path-11">
      <path id="Path_42165" data-name="Path 42165" d="M405,87.032V74.969q0-.3.029-.591t.087-.586q.058-.291.144-.574t.2-.557q.113-.274.253-.535t.3-.508q.164-.247.353-.475t.4-.439q.21-.209.439-.4t.476-.353q.246-.164.508-.3t.535-.253q.274-.113.557-.2t.574-.144q.291-.058.586-.087t.591-.029h12.063q.3,0,.591.029t.586.087q.291.058.574.144t.557.2q.274.113.535.253t.508.3q.247.164.476.353t.439.4q.209.209.4.439t.353.475q.165.247.3.508t.253.535q.113.274.2.557t.144.574q.058.291.087.586t.029.591V87.032q0,.3-.029.591t-.087.586q-.058.291-.144.574t-.2.557q-.113.274-.253.535t-.3.508q-.164.246-.353.475t-.4.439q-.21.209-.439.4t-.476.353q-.246.164-.508.3t-.535.253q-.274.113-.557.2t-.574.144q-.291.058-.586.087t-.591.029H411.031q-.3,0-.591-.029t-.586-.087q-.291-.058-.574-.144t-.557-.2q-.274-.113-.535-.253t-.508-.3q-.247-.165-.476-.353t-.439-.4q-.209-.209-.4-.439t-.353-.475q-.165-.247-.3-.508t-.253-.535q-.113-.274-.2-.557t-.144-.574q-.058-.291-.087-.586T405,87.032Zm0,0" transform="translate(-405 -68.938)"/>
    </clipPath>
  </defs>
  <g id="Mask_Group_2" data-name="Mask Group 2" transform="translate(-3020 1484)" clip-path="url(#clip-path)">
    <g id="Group_176258" data-name="Group 176258" transform="translate(335.98 703)">
      <g id="Group_176246" data-name="Group 176246" transform="translate(2682.02 -2189)" clip-path="url(#clip-path-2)">
        <g id="Group_176245" data-name="Group 176245" transform="translate(0 0)" clip-path="url(#clip-path-3)">
          <path id="Path_42152" data-name="Path 42152" d="M405,68.938h24v24H405Zm0,0" transform="translate(-405 -68.938)" fill="#fff"/>
        </g>
      </g>
      <g id="Group_176248" data-name="Group 176248" transform="translate(2682.02 -2189)" clip-path="url(#clip-path-4)">
        <g id="Group_176247" data-name="Group 176247" transform="translate(0 0)" clip-path="url(#clip-path-5)">
          <path id="Path_42155" data-name="Path 42155" d="M405,68.938h24v8.042H405Zm0,0" transform="translate(-405 -68.938)"/>
        </g>
      </g>
      <g id="Group_176250" data-name="Group 176250" transform="translate(2682.02 -2173.112)" clip-path="url(#clip-path-6)">
        <g id="Group_176249" data-name="Group 176249" transform="translate(0 -16.014)" clip-path="url(#clip-path-5)">
          <path id="Path_42158" data-name="Path 42158" d="M405,284.965h24v8.042H405Zm0,0" transform="translate(-405 -268.879)" fill="#007a3d"/>
        </g>
      </g>
      <g id="Group_176252" data-name="Group 176252" transform="translate(2682.02 -2189)" clip-path="url(#clip-path-8)">
        <g id="Group_176251" data-name="Group 176251" transform="translate(0 0)" clip-path="url(#clip-path-9)">
          <path id="Path_42161" data-name="Path 42161" d="M405,92.938l12.063-12L405,68.938Zm0,0" transform="translate(-405 -68.938)" fill="#ce1126"/>
        </g>
      </g>
      <g id="Group_176254" data-name="Group 176254" transform="translate(2686.626 -2178.782)" clip-path="url(#clip-path-10)">
        <g id="Group_176253" data-name="Group 176253" transform="translate(-2.606 -10.28)" clip-path="url(#clip-path-11)">
          <path id="Path_42164" data-name="Path 42164" d="M442.484,210.367l.748.688-.072-1.013,1.007-.157-.844-.573.513-.887-.977.3-.374-.953-.374.953-.977-.3.512.887-.844.573,1.007.157-.072,1.013Zm0,0" transform="translate(-438.135 -197.435)" fill="#fff"/>
        </g>
      </g>
    </g>
  </g>
</svg>
