<svg xmlns="http://www.w3.org/2000/svg" xmlns:xlink="http://www.w3.org/1999/xlink" width="20" height="20" viewBox="0 0 20 20">
  <defs>
    <clipPath id="clip-path">
      <path id="Path_42174" data-name="Path 42174" d="M94.98,418.43h20v20h-20Zm0,0"/>
    </clipPath>
  </defs>
  <g id="Group_176257" data-name="Group 176257" transform="translate(-94.98 -418.43)" clip-path="url(#clip-path)">
    <path id="Path_42171" data-name="Path 42171" d="M94.98,420.274l1.846-1.844h5.981l2.252.923,2.1-.923h5.981l1.842,1.848v5.978l-1.036,2.169,1.036,2.181v5.978l-1.844,1.846h-5.979l-2.147-.9-2.2.9h-5.98l-1.848-1.842v-5.982l1.269-1.919-1.269-2.43Zm0,0" fill="#052878"/>
    <path id="Path_42172" data-name="Path 42172" d="M94.98,418.43l.264.809-.264.423v.613l5.982,5.982H94.98v.869l.977,1.334-.977,1.276v.869h5.982l-5.982,5.982v1.842l.827-.283.4.283h.618l5.98-5.979v5.979h.872l1.314-.652,1.295.652h.868V432.45l5.979,5.979h1.844l-.37-1,.37-.228v-.614L109,430.605h5.978v-.869l-.775-1.329.775-1.281v-.869H109l5.978-5.978v-1.845l-.747.208-.478-.211h-.617l-5.981,5.981V418.43h-.868s-1.066,1-1.11,1-1.5-1-1.5-1h-.872v5.981l-5.981-5.981Zm20,0v0h0Zm0,0" fill="#fff"/>
    <path id="Path_42173" data-name="Path 42173" d="M94.98,418.43v1.231l6.6,6.6h1.23Zm8.7,0v8.7h-8.7v2.61h8.7v8.694h2.609v-8.694h8.692v-2.61h-8.692v-8.7Zm10.075,0-6.6,6.6v1.23l7.823-7.825v0h-1.226ZM102.806,430.6,94.98,438.43H96.21l6.6-6.6Zm4.351,0,7.823,7.823V437.2l-6.594-6.594Zm0,0" fill="#df0b2e"/>
  </g>
</svg>
