<svg xmlns="http://www.w3.org/2000/svg" xmlns:xlink="http://www.w3.org/1999/xlink" width="22" height="22" viewBox="0 0 22 22">
  <defs>
    <filter id="Ellipse_170">
      <feOffset dy="7" input="SourceAlpha"/>
      <feGaussianBlur stdDeviation="8" result="blur"/>
      <feFlood flood-color="#be272c" result="color"/>
      <feComposite operator="out" in="SourceGraphic" in2="blur"/>
      <feComposite operator="in" in="color"/>
      <feComposite operator="in" in2="SourceGraphic"/>
    </filter>
    <clipPath id="clip-path">
      <path id="Path_42123" data-name="Path 42123" d="M469,467.359h14.449v14.479H469Zm0,0" transform="translate(-469 -467.359)" fill="#fff"/>
    </clipPath>
  </defs>
  <g id="Group_176245" data-name="Group 176245" transform="translate(-36 -2)">
    <g data-type="innerShadowGroup">
      <circle id="Ellipse_170-2" data-name="Ellipse 170" cx="11" cy="11" r="11" transform="translate(36 2)" fill="#ff5757"/>
      <g transform="matrix(1, 0, 0, 1, 36, 2)" filter="url(#Ellipse_170)">
        <circle id="Ellipse_170-3" data-name="Ellipse 170" cx="11" cy="11" r="11" fill="#fff"/>
      </g>
      <g id="Ellipse_170-4" data-name="Ellipse 170" transform="translate(36 2)" fill="none" stroke="#d04141" stroke-width="0.5">
        <circle cx="11" cy="11" r="11" stroke="none"/>
        <circle cx="11" cy="11" r="10.75" fill="none"/>
      </g>
    </g>
    <g id="Group_176046" data-name="Group 176046" transform="translate(40 6)" clip-path="url(#clip-path)">
      <path id="Path_42122" data-name="Path 42122" d="M483.869,475.8q-.016.17-.04.338t-.056.335q-.032.167-.072.332t-.088.329q-.048.163-.1.324t-.118.319q-.063.158-.133.313t-.147.306q-.077.152-.162.3t-.176.291q-.091.144-.189.283t-.2.273q-.1.134-.215.264t-.227.253q-.117.124-.239.242t-.25.231q-.128.113-.26.219t-.27.206q-.138.1-.28.193t-.289.18q-.146.087-.3.166t-.3.152q-.154.072-.311.138t-.317.123q-.16.058-.322.108c-.109.034-.217.064-.327.093s-.22.054-.331.077-.223.044-.335.061-.224.033-.337.045-.225.023-.339.03-.226.012-.34.014-.227,0-.34,0-.227-.01-.34-.018-.226-.02-.338-.034-.225-.031-.336-.05-.223-.041-.334-.066-.221-.052-.33-.082-.218-.062-.326-.1-.215-.072-.321-.112-.211-.082-.315-.127-.207-.092-.309-.142-.2-.1-.3-.156-.2-.111-.294-.17-.192-.12-.286-.184-.186-.129-.277-.2-.18-.138-.267-.21-.173-.146-.257-.222-.166-.154-.247-.234-.159-.162-.235-.245-.151-.169-.223-.257-.143-.176-.211-.266-.134-.182-.2-.276-.126-.189-.185-.285-.117-.194-.172-.294-.107-.2-.158-.3-.1-.2-.143-.309-.088-.209-.129-.315-.078-.213-.113-.321-.068-.216-.1-.326-.058-.219-.083-.33-.047-.221-.067-.333-.037-.224-.052-.336-.026-.225-.036-.338-.016-.226-.02-.34-.005-.227,0-.34.005-.227.012-.34.016-.226.028-.339.027-.225.044-.337.037-.224.06-.335.048-.222.076-.332.058-.219.091-.328.068-.216.106-.323.079-.213.122-.318.088-.209.136-.312.1-.2.151-.3.108-.2.165-.3.117-.194.179-.289.126-.189.192-.281.135-.182.205-.271.143-.176.218-.261.151-.169.23-.251.159-.162.241-.24.166-.154.252-.228.173-.146.263-.216.18-.138.273-.2.186-.129.282-.19.192-.12.29-.177.2-.111.3-.163.2-.1.306-.149.207-.092.312-.134.211-.082.318-.119.215-.072.324-.1.218-.062.328-.089.221-.052.332-.074.223-.041.335-.058.225-.031.337-.042a.343.343,0,0,1,.121,0,.334.334,0,0,1,.112.045.344.344,0,0,1-.026.6q-.13.073-.255.153t-.246.167q-.121.087-.236.181t-.225.194q-.11.1-.214.207t-.2.219c-.065.075-.128.152-.188.23s-.119.159-.175.241-.11.165-.161.25-.1.171-.146.259-.09.177-.131.267-.079.182-.115.274-.069.186-.1.281-.058.19-.083.286-.047.193-.066.29-.036.2-.049.294-.024.2-.032.3-.013.2-.015.3,0,.2,0,.3.01.2.019.3.021.2.036.3.033.2.053.293.044.194.07.289.055.191.086.285.066.187.1.279.076.183.119.273.087.179.134.266.1.173.149.257.107.167.164.248.116.161.178.239.125.154.191.228.134.146.2.217.142.138.216.2.15.13.228.192.157.121.238.178.164.112.248.164.17.1.257.149.176.092.266.135.181.082.273.119.185.071.279.1.189.06.285.087.192.049.289.07.195.038.293.053.2.027.3.036.2.016.3.019.2,0,.3,0,.2-.007.3-.015.2-.018.3-.032.2-.03.294-.049.194-.041.29-.066.191-.052.286-.083.188-.063.281-.1.184-.074.275-.115.179-.085.267-.131.174-.095.26-.146.169-.1.251-.16.163-.114.241-.175.156-.123.23-.188.148-.132.219-.2.14-.14.207-.214.132-.148.195-.225.123-.156.181-.236.114-.162.167-.246.1-.169.153-.255a.351.351,0,0,1,.3-.153.355.355,0,0,1,.114.022.349.349,0,0,1,.109.043.345.345,0,0,1,.166.295Zm0,0" transform="translate(-469.42 -467.884)" fill="#fff"/>
    </g>
  </g>
</svg>
