<svg xmlns="http://www.w3.org/2000/svg" xmlns:xlink="http://www.w3.org/1999/xlink" width="17.877" height="17.88" viewBox="0 0 17.877 17.88">
  <defs>
    <clipPath id="clip-path">
      <path id="Path_42112" data-name="Path 42112" d="M217,51.121h2.87v3.415H217Zm0,0" transform="translate(-217 -51.121)" fill="#fff"/>
    </clipPath>
    <clipPath id="clip-path-2">
      <path id="Path_42114" data-name="Path 42114" d="M217,314h2.87v3.373H217Zm0,0" transform="translate(-217 -314)" fill="#fff"/>
    </clipPath>
    <clipPath id="clip-path-3">
      <path id="Path_42117" data-name="Path 42117" d="M81,187h3.366v2.925H81Zm0,0" transform="translate(-81 -187)" fill="#fff"/>
    </clipPath>
  </defs>
  <g id="Untitled_design" data-name="Untitled design" transform="translate(-81 -51.121)">
    <path id="Path_42110" data-name="Path 42110" d="M169.761,135.342c0,.074,0,.148-.005.223s-.009.148-.016.222-.016.148-.027.221-.023.147-.038.22-.031.145-.049.217-.038.144-.059.215-.045.142-.07.212-.052.139-.08.208-.059.136-.09.2-.065.133-.1.2-.072.13-.11.194-.078.127-.119.188-.084.122-.128.182-.09.118-.137.176-.1.114-.146.169-.1.109-.154.161-.106.1-.161.154-.111.1-.169.146-.116.093-.176.137-.12.087-.182.128-.125.081-.188.119-.128.075-.194.11-.132.069-.2.1-.135.062-.2.09-.138.055-.208.08-.141.048-.212.07-.143.041-.215.059-.144.034-.217.049-.146.027-.22.038-.147.02-.221.027-.148.013-.222.016-.149.006-.223.006-.149,0-.223-.006-.148-.009-.222-.016-.148-.016-.221-.027-.147-.024-.22-.038-.145-.031-.217-.049-.144-.038-.215-.059-.142-.045-.212-.07-.139-.052-.208-.08-.137-.059-.2-.09-.133-.065-.2-.1-.13-.072-.194-.11-.127-.078-.188-.119-.123-.084-.182-.128-.118-.09-.176-.137-.114-.1-.169-.146-.109-.1-.161-.154-.1-.106-.154-.161-.1-.111-.146-.169-.093-.116-.137-.176-.087-.12-.128-.182-.081-.125-.119-.188-.075-.128-.11-.194-.068-.132-.1-.2-.062-.135-.09-.2-.055-.138-.08-.208-.048-.141-.07-.212-.041-.143-.06-.215-.034-.145-.049-.217-.027-.146-.038-.22-.02-.147-.027-.221-.013-.148-.016-.222-.005-.149-.005-.223,0-.149.005-.223.009-.148.016-.222.016-.148.027-.221.023-.147.038-.219.031-.146.049-.218.038-.144.06-.215.045-.142.07-.212.052-.139.08-.208.059-.137.09-.2.065-.134.1-.2.072-.13.11-.194.078-.126.119-.188.084-.123.128-.182.09-.118.137-.176.1-.114.146-.169.1-.109.154-.161.106-.1.161-.154.111-.1.169-.146.116-.093.176-.137.12-.087.182-.128.125-.081.188-.119.128-.075.194-.11.132-.068.2-.1.135-.062.2-.09.138-.055.208-.08.141-.048.212-.07.143-.041.215-.06.144-.034.217-.049.146-.027.22-.038.147-.02.221-.027.148-.013.222-.016.149-.005.223-.005.149,0,.223.005.148.009.222.016.148.016.221.027.147.023.22.038.145.031.217.049.144.038.215.06.142.045.212.07.139.052.208.08.137.059.2.09.133.065.2.1.13.072.194.11.127.078.188.119.123.084.182.128.118.09.176.137.114.1.169.146.109.1.161.154.1.106.154.161.1.111.146.169.093.116.137.176.087.12.128.182.081.125.119.188.075.128.11.194.068.132.1.2.062.135.09.2.055.138.08.208.048.141.07.212.041.143.059.215.034.144.049.218.027.146.038.219.02.147.027.221.013.148.016.222S169.761,135.267,169.761,135.342Zm0,0" transform="translate(-75.283 -75.283)" fill="#fff"/>
    <g id="Group_176043" data-name="Group 176043" transform="translate(88.505 51.121)" clip-path="url(#clip-path)">
      <path id="Path_42111" data-name="Path 42111" d="M218.153,51.29c-.331.84-.827,2-1.113,2.739a.311.311,0,0,0-.019.08.3.3,0,0,0,0,.082.316.316,0,0,0,.024.079.31.31,0,0,0,.044.07.312.312,0,0,0,.133.094.313.313,0,0,0,.081.018.308.308,0,0,0,.082,0,5.719,5.719,0,0,1,2.128,0,.308.308,0,0,0,.082,0,.314.314,0,0,0,.081-.018.312.312,0,0,0,.133-.094.309.309,0,0,0,.044-.07.317.317,0,0,0,.024-.079.3.3,0,0,0,0-.082.311.311,0,0,0-.019-.08c-.286-.742-.783-1.9-1.113-2.739a.314.314,0,0,0-.047-.081.317.317,0,0,0-.247-.119h-.006a.311.311,0,0,0-.093.014.319.319,0,0,0-.154.1A.314.314,0,0,0,218.153,51.29Zm0,0" transform="translate(-217.018 -51.092)" fill="#fff"/>
    </g>
    <g id="Group_176044" data-name="Group 176044" transform="translate(88.505 65.628)" clip-path="url(#clip-path-2)">
      <path id="Path_42113" data-name="Path 42113" d="M218.153,317.313c-.331-.841-.827-2-1.113-2.739a.312.312,0,0,1-.019-.08.3.3,0,0,1,0-.082.315.315,0,0,1,.024-.079.314.314,0,0,1,.1-.126.312.312,0,0,1,.153-.056.306.306,0,0,1,.082,0,5.732,5.732,0,0,0,2.128,0,.306.306,0,0,1,.082,0,.312.312,0,0,1,.153.056.314.314,0,0,1,.1.126.316.316,0,0,1,.024.079.3.3,0,0,1,0,.082.312.312,0,0,1-.019.08c-.286.742-.783,1.9-1.113,2.739a.317.317,0,0,1-.116.145.306.306,0,0,1-.085.041.311.311,0,0,1-.093.014h-.006a.312.312,0,0,1-.093-.014.307.307,0,0,1-.085-.041.317.317,0,0,1-.116-.145Zm0,0" transform="translate(-217.018 -314.142)" fill="#fff"/>
    </g>
    <path id="Path_42115" data-name="Path 42115" d="M347.191,188.276c-.84-.331-2-.828-2.739-1.114a.313.313,0,0,0-.162-.017.315.315,0,0,0-.079.024.31.31,0,0,0-.126.1.3.3,0,0,0-.038.073.31.31,0,0,0-.018.08.317.317,0,0,0,0,.082,5.72,5.72,0,0,1,0,2.128.318.318,0,0,0,0,.082.312.312,0,0,0,.018.08.3.3,0,0,0,.038.073.312.312,0,0,0,.126.1.3.3,0,0,0,.079.024.307.307,0,0,0,.162-.017c.742-.286,1.9-.783,2.739-1.113a.314.314,0,0,0,.081-.047.32.32,0,0,0,.064-.069.325.325,0,0,0,.041-.085.315.315,0,0,0,.014-.093v-.006a.317.317,0,0,0-.014-.093.324.324,0,0,0-.041-.085.314.314,0,0,0-.146-.116Zm0,0" transform="translate(-248.514 -128.514)" fill="#fff"/>
    <g id="Group_176045" data-name="Group 176045" transform="translate(81 58.619)" clip-path="url(#clip-path-3)">
      <path id="Path_42116" data-name="Path 42116" d="M81.169,188.276c.84-.331,2-.828,2.739-1.114a.313.313,0,0,1,.162-.017.316.316,0,0,1,.079.024.31.31,0,0,1,.126.1.3.3,0,0,1,.038.073.31.31,0,0,1,.018.08.318.318,0,0,1,0,.082,5.72,5.72,0,0,0,0,2.128.319.319,0,0,1,0,.082.312.312,0,0,1-.018.08.3.3,0,0,1-.038.073.312.312,0,0,1-.126.1.3.3,0,0,1-.079.024.307.307,0,0,1-.162-.017c-.742-.286-1.9-.783-2.739-1.113a.314.314,0,0,1-.081-.047.319.319,0,0,1-.064-.069.325.325,0,0,1-.041-.085.316.316,0,0,1-.014-.093v-.006a.318.318,0,0,1,.014-.093.324.324,0,0,1,.041-.085.314.314,0,0,1,.146-.116Zm0,0" transform="translate(-80.97 -187.134)" fill="#fff"/>
    </g>
    <path id="Path_42118" data-name="Path 42118" d="M301.326,96.841c-.828.36-2,.827-2.724,1.149a.311.311,0,0,0-.156.417.308.308,0,0,0,.106.125,5.734,5.734,0,0,1,1.5,1.5.318.318,0,0,0,.055.061.312.312,0,0,0,.443-.041.3.3,0,0,0,.043-.07c.323-.727.789-1.9,1.149-2.724a.31.31,0,0,0,.024-.091.306.306,0,0,0,0-.094.312.312,0,0,0-.031-.089.317.317,0,0,0-.056-.076l0,0a.316.316,0,0,0-.076-.056.311.311,0,0,0-.089-.031.305.305,0,0,0-.094,0A.31.31,0,0,0,301.326,96.841Zm0,0" transform="translate(-205.419 -43.172)" fill="#fff"/>
    <path id="Path_42119" data-name="Path 42119" d="M126.719,271.448c.36-.828.827-2,1.149-2.724a.311.311,0,0,1,.043-.07.312.312,0,0,1,.133-.1.311.311,0,0,1,.366.115,5.716,5.716,0,0,0,1.5,1.5.313.313,0,0,1,.106.125.314.314,0,0,1,.025.078.307.307,0,0,1-.015.163.311.311,0,0,1-.1.133.311.311,0,0,1-.07.043c-.727.323-1.9.789-2.724,1.149a.319.319,0,0,1-.185.021.318.318,0,0,1-.164-.087l0,0a.318.318,0,0,1-.087-.164.319.319,0,0,1,.021-.185Zm0,0" transform="translate(-43.172 -205.42)" fill="#fff"/>
    <path id="Path_42120" data-name="Path 42120" d="M301.748,271.448c-.36-.828-.827-2-1.149-2.724a.311.311,0,0,0-.043-.07.312.312,0,0,0-.133-.1.312.312,0,0,0-.366.115,5.716,5.716,0,0,1-1.5,1.5.31.31,0,0,0-.061.055.308.308,0,0,0-.069.148.307.307,0,0,0,.015.163.311.311,0,0,0,.1.133.312.312,0,0,0,.07.043c.727.323,1.9.789,2.724,1.149a.319.319,0,0,0,.185.021.318.318,0,0,0,.164-.087l0,0a.318.318,0,0,0,.087-.164.318.318,0,0,0-.021-.185Zm0,0" transform="translate(-205.42 -205.42)" fill="#fff"/>
    <path id="Path_42121" data-name="Path 42121" d="M127.14,96.841c.828.36,2,.827,2.724,1.149a.312.312,0,0,1,.112.486.316.316,0,0,1-.061.055,5.734,5.734,0,0,0-1.5,1.5.317.317,0,0,1-.055.061.311.311,0,0,1-.31.054.311.311,0,0,1-.133-.1.3.3,0,0,1-.043-.07c-.322-.727-.789-1.9-1.149-2.724a.311.311,0,0,1-.024-.091.306.306,0,0,1,0-.094.311.311,0,0,1,.031-.089.316.316,0,0,1,.056-.076l0,0a.317.317,0,0,1,.076-.056.311.311,0,0,1,.089-.031.305.305,0,0,1,.094,0A.31.31,0,0,1,127.14,96.841Zm0,0" transform="translate(-43.172 -43.172)" fill="#fff"/>
  </g>
</svg>
